# xmcd CD database file
#
# Track frame offsets:
#	150
#	15276
#	29938
#	48388
#	72177
#	88245
#	104702
#	120620
#	138051
#	156654
#	171622
#
# Disc length: 2481 seconds
#
# Revision: 0
# Processed by: cddbd v1.5.2PL0 Copyright (c) Steve Scherf et al.
# Submitted via: CDex 1.70beta2
#
DISCID=a009af0b
DTITLE=Corrine Champigny - Truth (songs from the heart)
DYEAR=1997
DGENRE=New Age
TTITLE0=Child of the Universe
TTITLE1=Truth
TTITLE2=God Has No Religion
TTITLE3=He's Not The One
TTITLE4=Temporary Solutions
TTITLE5=The Land Of Pan
TTITLE6=You've Got Heart
TTITLE7=Let Your Spirit Fly
TTITLE8=Soul mate
TTITLE9=I'm Your Angel
TTITLE10=I Forgive You
EXTD=YEAR: 1997
EXTT0=
EXTT1=
EXTT2=
EXTT3=
EXTT4=
EXTT5=
EXTT6=
EXTT7=
EXTT8=
EXTT9=
EXTT10=
PLAYORDER=
